<svg width="100" height="100" viewBox="0 0 100 100" fill="none" xmlns="http://www.w3.org/2000/svg">
<path d="M50 0C40.111 0 30.444 2.93245 22.2215 8.42652C13.999 13.9206 7.59043 21.7295 3.80605 30.8658C0.0216642 40.0021 -0.968502 50.0555 0.960758 59.7545C2.89002 69.4535 7.65206 78.3627 14.6447 85.3553C21.6373 92.3479 30.5465 97.11 40.2455 99.0392C49.9445 100.969 59.9979 99.9783 69.1342 96.194C78.2705 92.4096 86.0794 86.0009 91.5735 77.7785C97.0675 69.556 100 59.889 100 50C100 43.4339 98.7067 36.9321 96.194 30.8658C93.6812 24.7995 89.9983 19.2876 85.3553 14.6447C80.7124 10.0017 75.2005 6.31876 69.1342 3.80602C63.0679 1.29329 56.5661 0 50 0V0ZM50 10C53.0129 10.0197 56.0144 10.3718 58.95 11.05C58.0809 13.012 56.7413 14.7293 55.05 16.05C53.95 16.9 52.75 17.6 51.55 18.35C47.7511 20.2204 44.5482 23.1117 42.3 26.7C39.8372 31.8328 38.7681 37.5233 39.2 43.2C39.2 50 39.2 54 34.45 57.55C27.6 62.9 17.15 59.9 10.65 57.2C10.2251 54.8234 10.0076 52.4143 10 50C10 39.3913 14.2143 29.2172 21.7157 21.7157C29.2172 14.2143 39.3914 10 50 10V10ZM15 69C18.2672 69.8493 21.6246 70.3025 25 70.35C30.648 70.5053 36.1821 68.7429 40.7 65.35C49.25 58.65 49.25 50.05 49.25 43.15C48.8708 39.1564 49.5072 35.1318 51.1 31.45C52.5471 29.4796 54.4751 27.913 56.7 26.9C58.2897 25.971 59.8255 24.9527 61.3 23.85C64.4073 21.3956 66.8201 18.1727 68.3 14.5C75.3348 18.0993 81.1458 23.7016 85 30.6C77.85 31.6 67.7 33.95 65.7 43.25C65.2486 45.472 65.0142 47.7326 65 50C65.1619 52.5342 64.6622 55.0671 63.55 57.35L63.05 58.2C59.8 63.6 56.15 69.75 61.1 78.2C61.7 79.25 62.35 80.25 63 81.25C64.3308 82.7872 65.2282 84.6511 65.6 86.65C60.6825 88.8175 55.3739 89.9575 50 90C42.8181 89.9641 35.7784 87.9953 29.6199 84.3002C23.4614 80.6051 18.4114 75.3201 15 69V69ZM74.65 81.6C73.7851 79.6034 72.7302 77.6946 71.5 75.9C70.95 75.1 70.4 74.3 69.9 73.45C67.95 70.05 68.65 68.45 71.8 63.45L72.3 62.6C74.2595 58.8603 75.1913 54.6676 75 50.45C74.995 48.773 75.1456 47.0991 75.45 45.45C76.25 41.8 84 40.8 88.8 40.45C90.74 47.9926 90.4186 55.9392 87.876 63.3005C85.3333 70.6618 80.6816 77.1127 74.5 81.85L74.65 81.6Z" fill="#5850EC"/>
</svg>
